<svg width="48" height="53" viewBox="0 0 48 53" fill="none" xmlns="http://www.w3.org/2000/svg">
<path d="M41.325 0.0999756H6.67499C3.49008 0.0999756 0.899994 2.4546 0.899994 5.34998V49.975C0.899994 50.6712 1.20421 51.3388 1.74572 51.8311C2.28723 52.3234 3.02168 52.6 3.78749 52.6H44.2125C44.9783 52.6 45.7128 52.3234 46.2543 51.8311C46.7958 51.3388 47.1 50.6712 47.1 49.975V5.34998C47.1 2.4546 44.5099 0.0999756 41.325 0.0999756ZM41.325 47.35H6.67499V5.34998H41.325V47.35Z" fill="#FF0056"/>
<path d="M12.3333 12H21.0833V17.8333H12.3333V12ZM26.9167 12H35.6667V17.8333H26.9167V12ZM12.3333 23.6667H21.0833V29.5H12.3333V23.6667ZM26.9167 23.7571H35.6667V29.5H26.9167V23.7571ZM12.3333 35.3333H21.0833V41.1667H12.3333V35.3333ZM26.9167 35.3333H35.6667V41.1667H26.9167V35.3333Z" fill="#FF0056"/>
</svg>
